<?xml version="1.0" encoding="UTF-8"?>
<svg width="150px" height="60px" viewBox="0 0 150 60" version="1.1" xmlns="http://www.w3.org/2000/svg" xmlns:xlink="http://www.w3.org/1999/xlink">
    <title>logo / mycomphealth / reversed</title>
    <g id="logo-/-mycomphealth-/-reversed" stroke="none" stroke-width="1" fill="none" fill-rule="evenodd">
        <g transform="translate(0.000000, 21.000000)">
            <g id="Group-4" transform="translate(-0.000152, 7.113106)" fill="#AEA3BC">
                <path d="M23.7545455,16.362197 C23.8121212,16.5099242 23.5810606,16.5735606 23.5810606,16.722803 C23.5234848,16.5735606 23.7545455,16.5099242 23.7545455,16.362197 M22.9462121,17.2735606 C23.2348485,16.637197 23.6772727,16.0432576 23.8704545,15.3652273 C23.5234848,16.0432576 23.080303,16.637197 22.9462121,17.2735606 M24.2939394,14.0925 C24.3522727,14.0288636 24.5439394,13.8584091 24.4287879,13.7743182 C24.4287879,13.9440152 24.2939394,13.9440152 24.2939394,14.0925 M24.3522727,14.6856818 C24.5060606,14.5159848 24.7363636,14.1985606 24.7363636,13.9440152 C24.5439394,14.1985606 24.4287879,14.3675 24.3522727,14.6856818 M25.5068182,13.3925 C25.5848485,13.4561364 25.5068182,13.4561364 25.5068182,13.5402273 C25.4492424,13.4561364 25.5068182,13.4561364 25.5068182,13.3925 M25.8537879,12.9258333 C25.8537879,13.0955303 25.7,13.1803788 25.6613636,13.3281061 C25.6613636,13.2220455 25.7772727,13.0318939 25.8537879,12.9258333 M26.1621212,12.5440152 C26.2590909,12.6917424 25.969697,12.6917424 25.969697,12.9258333 C25.8537879,12.862197 26.1621212,12.6076515 26.1621212,12.5440152 M26.625,17.1675 C26.7022727,17.2735606 26.5477273,17.3803788 26.5477273,17.4652273 C26.4128788,17.3803788 26.625,17.2735606 26.625,17.1675 M28.1462121,13.5402273 C28.1462121,13.5402273 28.2037879,13.5402273 28.2037879,13.6258333 C28.3772727,13.3925 28.2424242,13.4985606 28.2810606,13.2220455 C28.2037879,13.2220455 28.1462121,13.3925 28.1462121,13.5402273 M24.2363636,15.2159848 C24.1590909,15.3015909 24.1590909,15.4288636 24.1015152,15.4288636 C24.1015152,15.5773485 24.0431818,15.5773485 23.9469697,15.6614394 L23.9469697,15.8523485 L23.8121212,15.8523485 C23.7545455,16.0432576 23.7545455,16.362197 23.5234848,16.362197 C23.5810606,16.722803 23.080303,16.9349242 23.330303,17.2735606 C23.3886364,16.9985606 23.4659091,16.8281061 23.5810606,16.722803 C23.5234848,16.9349242 23.3886364,17.1258333 23.330303,17.3803788 C23.2537879,17.5712879 23.2537879,17.8675 23.1575758,18.0803788 C23.080303,18.2076515 22.9840909,18.2712879 22.9840909,18.3129545 C22.8878788,18.6743182 22.8106061,19.0561364 22.8106061,19.4159848 C22.8106061,19.7137121 22.8492424,19.9887121 22.9840909,20.222803 C23.2537879,20.0735606 23.6772727,19.7137121 23.8704545,19.5432576 C23.8704545,19.4591667 23.9469697,19.3743182 23.8704545,19.2887121 C24.1015152,19.2250758 24.0431818,19.0773485 24.1015152,18.9068939 C24.2939394,18.5887121 24.5439394,18.3129545 24.7363636,18.0167424 C25.0643939,17.3803788 25.5848485,16.7440152 25.7772727,16.1076515 C25.7772727,16.0432576 25.7772727,15.8523485 25.8537879,15.7250758 C25.9310606,15.5773485 26.1234848,15.4288636 26.1621212,15.3015909 L26.1621212,15.1318939 C26.1818182,14.9197727 26.3356061,14.7705303 26.4128788,14.5159848 L27.0287879,13.0955303 C27.4333333,12.2894697 27.8765152,11.2925 28.1462121,10.6561364 C28.2037879,10.4220455 28.4924242,9.8925 28.569697,9.72204545 C28.4924242,9.8925 28.0689394,10.2106818 27.9924242,10.1038636 C27.9727273,10.4440152 27.5878788,10.7614394 27.4143939,10.8682576 C27.1833333,10.9955303 26.9136364,11.2925 27.0287879,11.2925 C26.9522727,11.5046212 26.9522727,11.2925 26.8363636,11.3773485 C26.9136364,11.7159848 26.5477273,12.0137121 26.4128788,12.1409848 C26.4128788,12.0137121 26.7022727,11.9281061 26.625,11.8008333 C26.4128788,11.9281061 26.2590909,12.4803788 26.1234848,12.2894697 C26.1234848,12.3955303 25.9310606,12.3955303 25.969697,12.4803788 L26.1234848,12.4803788 C25.969697,12.6917424 25.8537879,12.5440152 25.7772727,12.6917424 C25.9310606,12.7553788 25.9310606,12.6076515 25.9310606,12.6917424 C25.8537879,12.7553788 25.7772727,12.9258333 25.6613636,12.9258333 C25.6613636,13.0955303 25.5068182,13.0955303 25.5848485,13.1803788 C25.2189394,13.2220455 25.1219697,13.9440152 25.0068182,13.7106818 L24.4287879,14.7705303 C24.3128788,14.9834091 24.2939394,15.0887121 24.2363636,15.2159848 M28.6469697,12.6076515 C28.8204545,12.6917424 28.6469697,12.6917424 28.6469697,12.7553788 C28.4924242,12.7553788 28.6469697,12.6076515 28.6469697,12.6076515 M29.0515152,11.6318939 C28.955303,11.6318939 28.955303,11.7159848 28.955303,11.8432576 C29.1090909,11.9068939 29.1477273,11.6318939 29.0515152,11.6318939 M29.4363636,11.1015909 C29.4363636,11.1015909 29.4363636,10.9955303 29.3598485,10.9955303 C29.3598485,11.1015909 29.3212121,11.2068939 29.4363636,11.1015909 M30.7848485,8.51371212 C30.9393939,8.34401515 31.0356061,8.21674242 31.2666667,8.15310606 C31.0356061,8.34401515 30.8045455,8.47128788 30.6689394,8.68265152 C30.5924242,8.57734848 30.7083333,8.53492424 30.7848485,8.51371212 M31.6325758,7.89780303 C31.5363636,7.98265152 31.4787879,8.02583333 31.3628788,8.04628788 C31.4787879,7.94098485 31.5166667,7.91901515 31.6325758,7.89780303 M32.6916667,7.28340909 C32.6727273,7.38871212 32.2878788,7.47431818 32.1522727,7.57962121 C32.1143939,7.55840909 32.4992424,7.38871212 32.6916667,7.28340909 M33.4045455,6.92280303 L33.5977273,6.83719697 C33.5590909,6.66825758 33.4621212,6.85916667 33.4045455,6.92280303 M24.8575758,2.8894697 C24.9734848,3.10234848 24.9916667,3.01674242 25.1272727,3.27204545 C25.4159091,3.73795455 25.0257576,3.27431818 25.0643939,3.90992424 C25.1795455,4.95007576 24.9681818,5.6925 24.7757576,6.70992424 C24.7363636,6.92280303 24.6787879,7.0705303 24.6212121,7.34704545 C24.6022727,7.49477273 24.6409091,7.51598485 24.6212121,7.62204545 C24.7363636,7.68568182 24.9295455,7.66522727 25.0257576,7.55840909 C25.2568182,7.3675 25.5462121,7.0705303 25.7386364,6.94325758 C25.9310606,6.75234848 26.1234848,6.49780303 26.2780303,6.34931818 C26.4318182,6.20083333 26.5666667,6.20083333 26.6439394,6.07356061 C26.7977273,5.81901515 26.8363636,5.81901515 26.9901515,5.6705303 C27.3181818,5.47962121 28.8393939,3.78340909 29.0515152,3.44325758 C29.3022727,3.06143939 29.5522727,2.70083333 29.8219697,2.36219697 C29.9757576,2.21295455 30.3613636,2.04401515 30.6507576,2.21295455 C30.6886364,2.21295455 30.8621212,2.4894697 30.9780303,2.63719697 C31.1318182,2.85007576 31.2280303,3.04098485 31.2666667,3.33795455 C31.2666667,3.5705303 31.4401515,3.84628788 31.3818182,4.08037879 C31.3818182,4.12204545 31.2666667,4.12204545 31.3242424,4.22810606 C31.3242424,4.22810606 31.3439394,4.20765152 31.3818182,4.22810606 C31.4401515,4.41901515 31.3818182,4.48265152 31.4401515,4.65234848 C31.3818182,4.75916667 31.4401515,4.58871212 31.3242424,4.65234848 C31.3242424,5.05537879 31.2666667,5.77659091 31.2666667,6.13719697 L31.2280303,6.70992424 C32.3454545,6.11674242 33.0583333,5.79780303 33.8863636,5.79780303 C34.5409091,5.75613636 35.1,6.03113636 35.6007576,6.24401515 L35.4848485,6.24401515 C35.619697,6.41295455 35.619697,6.54022727 35.8128788,6.56143939 C35.7931818,6.66825758 35.619697,6.66825758 35.5810606,6.62507576 C35.6007576,6.73189394 35.7545455,6.64628788 35.7734848,6.73189394 C35.5234848,6.92280303 35.4848485,6.54022727 35.1772727,6.60462121 C35.1772727,6.70992424 35.1962121,6.70992424 35.369697,6.75234848 C35.1772727,6.70992424 34.9840909,6.66825758 34.7719697,6.66825758 C34.0787879,6.66825758 33.3659091,6.94325758 32.8651515,7.17659091 C32.9037879,7.05007576 33.1924242,6.9644697 33.4045455,6.92280303 C33.3659091,6.92280303 33.2886364,6.81598485 33.2886364,6.81598485 C32.6727273,7.15537879 32.4030303,7.24022727 32.3068182,7.30386364 C32.2295455,7.38871212 32.094697,7.47431818 32.0371212,7.51598485 C31.9022727,7.38871212 31.825,7.66522727 31.8060606,7.68568182 C31.8060606,7.68568182 31.7098485,7.70689394 31.6712121,7.66522727 C31.6325758,7.70689394 31.4787879,7.7705303 31.3439394,7.87734848 C31.2666667,7.91901515 31.2280303,8.0894697 30.9969697,8.10992424 C30.7462121,8.32280303 30.5159091,8.61901515 30.2840909,8.76825758 C30.2075758,8.87356061 30.2265152,8.93719697 30.130303,9.04401515 C30.0340909,9.19174242 30.0151515,9.31977273 29.9181818,9.38340909 C30.1689394,9.38340909 29.9181818,9.51068182 29.9181818,9.74401515 C29.8030303,9.74401515 29.8795455,9.61674242 29.8030303,9.61674242 C29.8030303,9.95613636 29.5909091,10.2106818 29.5143939,10.5493182 C29.5909091,10.697803 29.5909091,10.4220455 29.6295455,10.2743182 C29.8030303,10.4220455 29.6295455,10.697803 29.5143939,10.6561364 C29.6295455,10.8682576 29.5143939,10.697803 29.4363636,10.8682576 C29.4363636,10.9523485 29.5909091,11.1015909 29.4363636,11.2068939 C29.3598485,11.2925 29.3212121,11.2068939 29.3212121,11.2068939 C29.225,11.2925 29.1477273,11.2925 29.1477273,11.2925 C29.1477273,11.3773485 29.3212121,11.3773485 29.3212121,11.5887121 C29.1090909,11.3773485 29.225,11.7159848 29.1477273,11.8008333 C29.0515152,12.0137121 28.955303,12.2894697 28.8204545,12.5440152 C28.7431818,12.5440152 28.7431818,12.4803788 28.6469697,12.4803788 C28.5507576,12.4803788 28.5507576,12.6917424 28.5507576,12.6076515 C28.5507576,12.6917424 28.4924242,12.6917424 28.4348485,12.6917424 C28.4348485,12.9682576 28.3583333,13.1803788 28.3583333,13.3281061 C28.4924242,13.3281061 28.4348485,13.1803788 28.4924242,13.0955303 C28.4348485,13.0318939 28.4924242,13.0318939 28.5507576,12.862197 C28.569697,12.8826515 28.6469697,12.9258333 28.6469697,12.9258333 C28.7431818,13.0955303 28.4348485,13.5402273 28.3583333,13.6258333 L27.9924242,14.3675 C27.9151515,14.3675 27.9924242,14.1985606 27.9924242,14.1985606 C27.9151515,14.2834091 27.8765152,14.0925 27.7992424,14.1985606 C27.7613636,14.3675 27.7613636,14.4523485 27.6651515,14.6015909 L27.4333333,14.8341667 C27.2795455,15.1318939 27.1833333,15.4288636 27.0287879,15.6614394 C27.2795455,15.5773485 27.2795455,15.3015909 27.4333333,15.1318939 C27.6840909,14.9409848 27.6068182,14.5159848 27.9151515,14.4523485 C27.7992424,14.6015909 27.7992424,14.8341667 27.7613636,14.8341667 C27.7613636,15.0887121 27.5681818,15.3652273 27.3181818,15.6614394 C27.1060606,16.0432576 26.9522727,16.362197 26.7401515,16.722803 C26.625,16.9349242 26.4704545,17.1258333 26.4128788,17.2735606 C26.3356061,17.3803788 26.3356061,17.4652273 26.3356061,17.5712879 C26.2590909,17.6985606 26.1621212,17.7834091 26.1234848,17.9531061 C25.9310606,18.0803788 25.8537879,18.3129545 25.7,18.5887121 C25.5848485,18.7584091 25.4492424,18.9068939 25.2189394,19.1614394 C25.0833333,19.2887121 24.9681818,19.4591667 24.8333333,19.5864394 C25.4492424,19.2250758 25.8537879,18.3129545 26.3356061,17.6985606 C26.2590909,18.0167424 25.969697,18.2712879 25.8537879,18.5887121 C25.6613636,18.8432576 25.4492424,19.2250758 25.1219697,19.5432576 C24.9681818,19.7137121 24.7363636,20.0099242 24.4287879,20.222803 C24.3522727,20.3281061 24.2939394,20.5190152 24.1590909,20.6046212 C24.1015152,20.6682576 24.0431818,20.6682576 23.9469697,20.7318939 C23.7545455,20.8167424 23.6393939,20.922803 23.5234848,21.1553788 C22.6954545,20.9644697 22.1757576,20.3281061 22.0977273,19.3743182 C22.0212121,19.1409848 22.1757576,18.9068939 22.1757576,18.6523485 C22.1757576,18.5887121 22.0977273,18.6523485 22.0977273,18.5887121 C22.1757576,18.0167424 22.4636364,17.3803788 22.6757576,16.8917424 C22.7916667,16.637197 22.6954545,16.4682576 22.9462121,16.2985606 C22.9840909,16.1076515 23.080303,15.9796212 23.2537879,15.7250758 C23.330303,15.4705303 23.3886364,15.4068939 23.5234848,15.2159848 L23.5234848,15.0887121 C23.6772727,14.9197727 23.7545455,14.6856818 23.8704545,14.4523485 C23.9469697,14.3675 24.0431818,14.0925 24.1590909,13.9440152 C24.1590909,13.9440152 24.2363636,13.9440152 24.2939394,13.8584091 C24.6787879,13.2220455 24.6787879,13.1803788 24.8136364,13.0318939 C25.2189394,12.3955303 25.680303,11.6318939 26.1621212,11.1015909 C26.3742424,10.7834091 26.625,10.5493182 26.8363636,10.2743182 C27.1833333,9.8925 27.6257576,9.4675 27.9924242,9.08643939 C28.3583333,8.68265152 28.9356061,7.98265152 29.205303,7.51598485 C29.3984848,7.17659091 29.3984848,6.94325758 29.5325758,6.41295455 C29.744697,5.54325758 29.9757576,4.82280303 29.9757576,3.8894697 C29.744697,3.97356061 29.6484848,4.33492424 29.5325758,4.48265152 C29.4560606,4.58871212 29.3984848,4.48265152 29.3984848,4.58871212 C29.3022727,4.6955303 29.2628788,4.90689394 29.1090909,4.90689394 C29.1090909,5.01371212 29.0515152,5.11901515 29.0515152,5.18265152 C29.0128788,5.2675 28.8393939,5.2675 28.8393939,5.35234848 C28.7621212,5.45840909 28.7621212,5.58568182 28.6856061,5.6705303 C28.5893939,5.75613636 28.4545455,5.81901515 28.3772727,5.90386364 C28.1659091,6.13719697 28.0113636,6.30765152 27.7613636,6.49780303 C27.6068182,6.75234848 27.5106061,6.75234848 27.4719697,7.02810606 C27.2795455,7.05007576 26.9901515,7.3675 26.9901515,7.3675 C26.9136364,7.45234848 26.9136364,7.3675 26.855303,7.3675 C26.855303,7.3675 26.7022727,7.55840909 26.7022727,7.62204545 C26.7022727,7.81371212 26.0856061,8.25916667 25.6037879,8.55537879 C25.4689394,8.55537879 25.3916667,8.72583333 25.2568182,8.72583333 C24.6984848,8.85310606 24.2363636,8.55537879 23.7545455,8.3644697 C23.7159091,8.3644697 23.7159091,8.30083333 23.6393939,8.3644697 C23.330303,8.04628788 23.2348485,7.60159091 23.2348485,7.0705303 C23.2348485,6.83719697 23.4931818,6.26295455 23.5121212,6.00840909 C23.6666667,5.20234848 24.0128788,4.42431818 24.119697,3.46371212 C24.2265152,2.50310606 24.7409091,2.67734848 24.8575758,2.8894697" id="Fill-1"></path>
                <path d="M24.6060606,4.17878788 L24.8181818,4.13636364 C24.7333333,3.96666667 24.6484848,4.11515152 24.6060606,4.17878788 M24.4363636,4.56060606 C24.330303,4.56060606 24.3090909,4.70909091 24.2878788,4.70909091 C24.2878788,4.83636364 24.4151515,4.62424242 24.4363636,4.56060606 M22.8242424,4.96363636 C22.8878788,4.96363636 22.7393939,5.13333333 22.7393939,5.15454545 C22.6121212,5.06969697 22.8242424,4.98484848 22.8242424,4.96363636 M16.8636364,4.11515152 C16.7575758,3.98787879 17.1181818,3.81818182 17.2030303,3.77575758 C17.1181818,3.92424242 16.9060606,3.92424242 16.8636364,4.11515152 M15.8454545,5.13333333 C15.930303,5.09090909 16.0151515,5.04848485 16.1,4.98484848 C16.1424242,5.02727273 15.6757576,5.40909091 15.8454545,5.13333333 M13.1515152,1.78181818 C13.2575758,1.67575758 13.3848485,1.63333333 13.5121212,1.54848485 C13.5121212,1.65454545 13.3636364,1.73939394 13.1515152,1.78181818 M12.9181818,1.84545455 C13.0242424,1.8030303 13.0242424,1.84545455 13.0878788,1.84545455 C13.130303,1.99393939 12.8757576,1.97272727 12.9181818,1.84545455 M10.9030303,3.5 C10.9666667,3.64848485 10.8393939,3.60606061 10.8181818,3.64848485 C10.7545455,3.64848485 10.8393939,3.5 10.9030303,3.5 M10.5848485,3.81818182 C10.5848485,3.7969697 10.6909091,3.69090909 10.7121212,3.64848485 C10.7545455,3.71212121 10.6272727,3.77575758 10.5848485,3.81818182 M10.4363636,4.03030303 C10.330303,4.2 10.2666667,4.22121212 10.2030303,4.34848485 C10.0545455,4.32727273 10.4151515,4.03030303 10.4363636,4.03030303 M10.2878788,2.43939394 C10.330303,2.73636364 10.1606061,3.07575758 10.0121212,3.35151515 C9.94848485,3.54242424 9.96969697,3.81818182 9.86363636,4.07272727 C9.84242424,4.13636364 9.69393939,4.6030303 9.65151515,4.62424242 C9.67272727,4.81515152 9.52424242,4.83636364 9.46060606,4.98484848 C9.43939394,5.13333333 9.46060606,5.3030303 9.37575758,5.40909091 C10.0757576,4.70909091 10.7545455,3.96666667 11.4969697,3.26666667 C12.1969697,2.63030303 13.0666667,1.86666667 14,1.54848485 C13.9363636,1.52727273 13.830303,1.54848485 13.7666667,1.54848485 C13.830303,1.48484848 13.9151515,1.48484848 14.0848485,1.46363636 C13.9151515,1.33636364 13.8727273,1.48484848 13.6606061,1.46363636 C13.7030303,1.37878788 13.8090909,1.33636364 13.6181818,1.35757576 C13.7878788,1.20909091 14.0848485,1.14545455 14.2545455,1.20909091 C14.4030303,1.20909091 14.6151515,1.44242424 14.7212121,1.35757576 C14.6575758,1.31515152 14.6363636,1.25151515 14.6363636,1.25151515 C14.8272727,1.06060606 15.4636364,1.8030303 15.5272727,1.88787879 C15.7818182,2.20606061 15.8878788,2.75757576 15.8242424,3.13939394 C15.7393939,3.66969697 15.4848485,4.17878788 15.4212121,4.70909091 C15.3787879,5.15454545 15.0818182,5.55757576 14.9969697,6.0030303 C15.2727273,5.79090909 15.4212121,5.57878788 15.6757576,5.36666667 C15.4636364,5.70606061 15.0818182,5.91818182 14.8909091,6.32121212 C15.1666667,6.19393939 15.5060606,5.79090909 15.7181818,5.55757576 C15.8878788,5.36666667 16.0151515,5.1969697 16.2060606,5.04848485 C16.4393939,4.81515152 16.6727273,4.6030303 16.8848485,4.34848485 C17.0757576,4.2 17.1818182,3.88181818 17.3939394,3.81818182 C17.330303,3.71212121 17.4363636,3.54242424 17.2878788,3.39393939 C17.3727273,3.28787879 17.4363636,3.45757576 17.4787879,3.5 C17.5424242,3.45757576 17.6272727,3.43636364 17.7333333,3.43636364 C17.8181818,3.45757576 17.8606061,3.58484848 17.9454545,3.5 C18.0090909,3.47878788 18.0727273,3.5 18.1363636,3.5 C18.3484848,3.56363636 18.5606061,3.71212121 18.7939394,3.71212121 C18.8151515,3.75454545 18.9212121,4.07272727 18.9212121,3.9030303 C18.9848485,4.11515152 19.0060606,4.30606061 19.0060606,4.51818182 C19.0060606,5.04848485 18.8363636,5.57878788 18.6454545,6.10909091 C18.4969697,6.42727273 18.3909091,6.74545455 18.369697,7.08484848 C18.3484848,7.25454545 18.2636364,7.46666667 18.4333333,7.53030303 C18.5393939,7.57272727 18.6454545,7.67878788 18.5818182,7.78484848 C19.1121212,7.72121212 20.0666667,7.08484848 20.4484848,6.93636364 L20.4484848,7.08484848 C20.7242424,6.89393939 20.9363636,6.63939394 21.2545455,6.46969697 C21.2545455,6.46969697 21.6363636,6.19393939 21.6151515,6.23636364 C21.7212121,6.02424242 21.6787879,6.21515152 21.8484848,6.04545455 C21.8909091,6.0030303 21.9333333,5.93939394 21.9333333,5.87575758 C21.9969697,5.83333333 21.9757576,5.91818182 21.9969697,5.93939394 C21.9969697,5.87575758 22.0393939,5.76969697 22.0818182,5.68484848 C22.1030303,5.68484848 22.1454545,5.79090909 22.1454545,5.79090909 C22.1878788,5.79090909 22.1878788,5.66363636 22.2939394,5.66363636 C22.3787879,5.66363636 22.4,5.55757576 22.4212121,5.49393939 C22.4636364,5.45151515 22.7181818,5.15454545 22.8030303,5.17575758 C22.7818182,5.23939394 22.7393939,5.26060606 22.6969697,5.26060606 C22.6969697,5.28181818 22.6969697,5.28181818 22.7181818,5.28181818 C22.7818182,5.26060606 22.9939394,4.96363636 23.0363636,4.96363636 C23.2484848,4.98484848 23.3121212,4.56060606 23.5242424,4.4969697 C23.5242424,4.51818182 23.4606061,4.6030303 23.4393939,4.66666667 L23.630303,4.51818182 C23.630303,4.75151515 23.6727273,4.4969697 23.6727273,4.4969697 L23.969697,4.22121212 L24.5,3.75454545 C24.6272727,3.77575758 24.5212121,3.81818182 24.5,3.9030303 C24.6272727,3.77575758 24.6909091,3.7969697 24.8393939,3.69090909 C24.8393939,3.75454545 24.8181818,3.77575758 24.8181818,3.81818182 L24.9030303,3.81818182 C24.9666667,3.9030303 24.9666667,3.75454545 25.0727273,3.75454545 C25.0090909,3.88181818 24.9030303,3.9030303 24.7969697,3.96666667 C24.7969697,4.00909091 24.8181818,3.98787879 24.8181818,4.03030303 C24.9454545,4.11515152 24.9454545,3.92424242 25.0727273,3.9030303 C25.030303,4.13636364 24.7969697,4.22121212 24.6272727,4.41212121 C24.5212121,4.53939394 24.5212121,4.70909091 24.3939394,4.83636364 L23.8636364,5.40909091 C23.269697,6.04545455 22.569697,6.63939394 21.8909091,7.16969697 C21.2121212,7.74242424 20.4484848,8.35757576 19.5575758,8.65454545 C19.3242424,8.73939394 19.1121212,8.78181818 18.9,8.78181818 C18.6242424,8.78181818 18.369697,8.71818182 18.0515152,8.67575758 C17.7333333,8.65454545 17.5848485,8.20909091 17.3090909,8.16666667 C17.2030303,8.01742424 17.1606061,7.7 17.0545455,7.48787879 C16.9484848,7.25454545 16.9484848,7 16.9484848,6.74545455 C17.0757576,6.76666667 16.9484848,6.89393939 17.0545455,6.95757576 C17.0757576,6.72424242 17.0757576,6.46969697 17.0545455,6.23636364 C17.0969697,6.15151515 17.2030303,6.23636364 17.2666667,6.08787879 C17.2666667,6.0030303 17.1181818,6.02424242 17.1181818,6.10909091 C17.0545455,6.04545455 17.2030303,5.98181818 17.1181818,5.81212121 C16.969697,5.8969697 17.0757576,6.0030303 16.9909091,6.08787879 C16.9484848,6.10909091 16.9060606,6.10909091 16.8848485,6.04545455 L16.630303,6.3 C16.4393939,6.46969697 16.3121212,6.66060606 16.1,6.83030303 C15.9515152,6.87272727 15.7181818,7 15.7181818,7.16969697 C15.6969697,7.38181818 15.1878788,7.57272727 15.0393939,7.74242424 C14.7636364,8.03939394 14.530303,7.82651515 14.4454545,8.27272727 C14.3181818,8.14545455 14.2333333,8.27272727 14.0848485,8.23030303 C13.9151515,8.20909091 13.9787879,8.1030303 13.7878788,8.06060606 C13.469697,8.01742424 13.4909091,8.01742424 13.3636364,7.72121212 C13.2363636,7.80606061 13.4484848,7.82651515 13.2787879,7.89015152 C13.1939394,7.63636364 13.2363636,7.46666667 13.0666667,7.27575758 C12.9393939,7.10606061 12.9818182,6.93636364 13.0454545,6.74545455 C13.1727273,6.36363636 13.130303,5.93939394 13.3,5.55757576 C13.3636364,5.91818182 13.0454545,6.51212121 13.130303,6.85151515 C13.2787879,6.68181818 13.1515152,6.63939394 13.2575758,6.34242424 C13.3424242,6.40606061 13.1939394,6.46969697 13.2787879,6.61818182 C13.3636364,6.23636364 13.4060606,5.83333333 13.5121212,5.47272727 C13.6181818,5.13333333 13.8090909,4.83636364 13.9363636,4.51818182 C14.0212121,4.39090909 14.3393939,3.16060606 14.3606061,3.16060606 C14.3606061,3.11818182 14.4454545,3.16060606 14.4454545,3.16060606 C14.4666667,3.03333333 14.5515152,2.86363636 14.530303,2.71515152 C14.530303,2.63030303 14.3393939,2.65151515 14.3393939,2.65151515 L14.4454545,2.52424242 C14.2969697,2.33333333 14.3181818,2.60909091 14.2545455,2.69393939 C14.0848485,2.71515152 13.9787879,2.90606061 13.7878788,2.92727273 C13.8939394,2.75757576 14.0848485,2.75757576 14.2121212,2.52424242 C14.0848485,2.54545455 13.9787879,2.71515152 13.8727273,2.75757576 C13.7666667,2.84242424 13.6818182,2.73636364 13.5969697,2.82121212 C13.6181818,2.82121212 13.3636364,3.16060606 13.3636364,3.18181818 C13.4909091,3.11818182 13.5545455,2.94848485 13.7030303,2.94848485 C13.6606061,3.22424242 13.0878788,3.28787879 13.0878788,3.5 C13.130303,3.71212121 12.3454545,4.2 12.1969697,4.34848485 C11.6030303,4.87878788 11.1151515,5.49393939 10.6060606,6.08787879 C10.1818182,6.57575758 9.75757576,7 9.35454545,7.50909091 C9.05757576,7.93333333 8.73939394,8.33636364 8.37878788,8.6969697 C8.16666667,8.95151515 7.74242424,8.73939394 7.50909091,8.63333333 C7.10606061,8.44242424 6.95757576,8.20909091 6.95757576,7.97575758 C6.95757576,7.46666667 7.55151515,6.87272727 7.50909091,6.32121212 C7.46666667,6.10909091 7.78484848,5.6 7.86969697,5.38787879 C8.03939394,5.02727273 8.14545455,4.62424242 8.25151515,4.22121212 C8.4,3.66969697 8.59090909,3.11818182 8.8030303,2.54545455 C8.90909091,2.31212121 8.93030303,1.99393939 9.05757576,1.73939394 L9.05757576,1.67575758 C9.12121212,1.35757576 9.14242424,1.33636364 9.03636364,1.01818182 C8.95151515,1.01818182 8.90909091,1.06060606 8.84545455,1.03939394 C8.6969697,1.01818182 8.8030303,0.954545455 8.61212121,0.933333333 C8.14545455,0.954545455 7.33939394,1.16666667 6.66060606,1.42121212 C5.23939394,1.76060606 3.81818182,2.29090909 2.35454545,2.60909091 C2.54545455,2.43939394 2.65151515,2.43939394 2.75757576,2.41818182 C2.41818182,2.41818182 1.8030303,2.60909091 1.35757576,2.5030303 C1.29393939,2.5030303 1.29393939,2.43939394 1.35757576,2.33333333 C1.18787879,2.37575758 0.933333333,2.43939394 0.848484848,2.29090909 C0.890909091,2.26969697 0.763636364,2.12121212 0.890909091,2.16363636 C0.360606061,2.01515152 0.233333333,1.63333333 -8.61263922e-13,1.35757576 C0.0848484848,1.35757576 0.148484848,1.46363636 0.296969697,1.54848485 C0.403030303,1.67575758 0.53030303,1.54848485 0.742424242,1.56969697 C0.975757576,1.65454545 1.29393939,1.67575758 1.59090909,1.63333333 L2.22727273,1.52727273 L2.37575758,1.59090909 C2.8,1.42121212 3.26666667,1.31515152 3.69090909,1.20909091 C3.7969697,1.25151515 3.58484848,1.20909091 3.62727273,1.27272727 C3.73333333,1.27272727 3.81818182,1.23030303 3.96666667,1.20909091 C3.94545455,1.20909091 3.92424242,1.16666667 3.92424242,1.12424242 C3.94545455,1.03939394 4.03030303,1.12424242 4.05151515,1.16666667 C4.17878788,1.20909091 4.00909091,1.03939394 4.13636364,1.03939394 C4.22121212,1.16666667 4.28484848,1.12424242 4.39090909,1.01818182 C4.58181818,0.827272727 4.53939394,0.954545455 4.53939394,0.996969697 C4.6030303,0.996969697 4.68787879,0.933333333 4.68787879,0.848484848 C4.81515152,1.01818182 4.9,0.890909091 5.00606061,0.827272727 C5.11212121,0.721212121 5.43030303,0.806060606 5.38787879,0.742424242 C5.49393939,0.784848485 5.62121212,0.7 5.74848485,0.721212121 C5.70606061,0.615151515 5.74848485,0.593939394 5.85454545,0.615151515 C5.83333333,0.636363636 5.74848485,0.636363636 5.83333333,0.721212121 C5.85454545,0.742424242 5.87575758,0.636363636 5.91818182,0.636363636 C5.72727273,0.487878788 6.17272727,0.615151515 6.17272727,0.403030303 C6.23636364,0.403030303 6.17272727,0.466666667 6.17272727,0.572727273 C6.61818182,0.509090909 6.57575758,0.381818182 6.93636364,0.296969697 C7.08484848,0.254545455 7.23333333,0.360606061 7.33939394,0.296969697 C7.55151515,0.212121212 7.44545455,0.148484848 7.72121212,0.106060606 C7.97575758,0.106060606 8.25151515,2.66453526e-13 8.52727273,2.66453526e-13 C8.78181818,2.66453526e-13 8.93030303,0.0424242424 9.1,0.0848484848 C9.20606061,0.106060606 9.16363636,0.254545455 9.33333333,0.318181818 C9.37575758,0.360606061 9.43939394,0.360606061 9.54545455,0.318181818 C9.77878788,0.424242424 9.99090909,0.7 10.1606061,0.996969697 L10.3090909,1.31515152 C10.4363636,1.59090909 10.3939394,2.29090909 10.3939394,2.22727273 C10.3939394,2.20606061 10.330303,2.33333333 10.2878788,2.43939394" id="Fill-3"></path>
            </g>
            <g id="Group-5" transform="translate(34.403333, -0.000303)" fill="#FEFEFE">
                <path d="M-8.15509276e-13,8.10325758 L-8.15509276e-13,8.06083333 C-8.15509276e-13,3.86083333 3.13939394,0.382045455 7.50909091,0.382045455 C10.2030303,0.382045455 11.8151515,1.33659091 13.3,2.73659091 L12.1545455,3.96689394 C10.9030303,2.77901515 9.5030303,1.9305303 7.48787879,1.9305303 C4.2,1.9305303 1.73939394,4.60325758 1.73939394,8.01840909 L1.73939394,8.06083333 C1.73939394,11.497197 4.22121212,14.1911364 7.48787879,14.1911364 C9.52424242,14.1911364 10.8606061,13.4062879 12.2818182,12.0487121 L13.3848485,13.1305303 C11.8363636,14.7002273 10.1393939,15.7396212 7.44545455,15.7396212 C3.16060606,15.7396212 -8.15509276e-13,12.3668939 -8.15509276e-13,8.10325758" id="Fill-6"></path>
                <path d="M23.5665909,10.0548485 L23.5665909,10.0124242 C23.5665909,7.65787879 21.8059848,5.72757576 19.4938636,5.72757576 C17.1181061,5.72757576 15.4847727,7.65787879 15.4847727,9.97 L15.4847727,10.0124242 C15.4847727,12.3669697 17.2241667,14.2760606 19.5362879,14.2760606 C21.9120455,14.2760606 23.5665909,12.3669697 23.5665909,10.0548485 M13.8090152,10.0548485 L13.8090152,10.0124242 C13.8090152,6.91545455 16.227197,4.28515152 19.5362879,4.28515152 C22.8241667,4.28515152 25.2423485,6.8730303 25.2423485,9.97 L25.2423485,10.0124242 C25.2423485,13.1093939 22.8029545,15.7389394 19.4938636,15.7389394 C16.2059848,15.7389394 13.8090152,13.1518182 13.8090152,10.0548485" id="Fill-8"></path>
                <path d="M26.6849242,4.51840909 L28.3182576,4.51840909 L28.3182576,6.36386364 C29.0387121,5.28204545 30.0152273,4.28507576 31.8606818,4.28507576 C33.6425,4.28507576 34.787197,5.23962121 35.3811364,6.46992424 C36.1667424,5.26083333 37.3334091,4.28507576 39.2425,4.28507576 C41.7659848,4.28507576 43.3152273,5.98204545 43.3152273,8.69719697 L43.3152273,15.4850758 L41.6818939,15.4850758 L41.6818939,9.07901515 C41.6818939,6.95780303 40.6212879,5.76992424 38.8394697,5.76992424 C37.1841667,5.76992424 35.8265909,7.00022727 35.8265909,9.16386364 L35.8265909,15.4850758 L34.1940152,15.4850758 L34.1940152,9.03659091 C34.1940152,6.97901515 33.1114394,5.76992424 31.3720455,5.76992424 C29.6334091,5.76992424 28.3182576,7.21234848 28.3182576,9.2275 L28.3182576,15.4850758 L26.6849242,15.4850758 L26.6849242,4.51840909 Z" id="Fill-10"></path>
                <path d="M54.7692424,10.0337879 L54.7692424,9.99136364 C54.7692424,7.40348485 52.9874242,5.74893939 50.9086364,5.74893939 C48.8730303,5.74893939 46.9427273,7.46712121 46.9427273,9.97015152 L46.9427273,10.0125758 C46.9427273,12.5580303 48.8730303,14.255 50.9086364,14.255 C53.0298485,14.255 54.7692424,12.685303 54.7692424,10.0337879 L54.7692424,10.0337879 Z M45.3730303,4.51863636 L47.0063636,4.51863636 L47.0063636,6.72469697 C47.8972727,5.40954545 49.1912121,4.28530303 51.2063636,4.28530303 C53.8366667,4.28530303 56.445,6.36409091 56.445,9.97015152 L56.445,10.0125758 C56.445,13.5974242 53.8578788,15.7186364 51.2063636,15.7186364 C49.1692424,15.7186364 47.8540909,14.6156061 47.0063636,13.385303 L47.0063636,18.8792424 L45.3730303,18.8792424 L45.3730303,4.51863636 Z" id="Fill-12"></path>
                <polygon id="Fill-14" points="57.9090909 0.636590909 59.5848485 0.636590909 59.5848485 7.23356061 68.1537879 7.23356061 68.1537879 0.636590909 69.8295455 0.636590909 69.8295455 15.4850758 68.1537879 15.4850758 68.1537879 8.80325758 59.5848485 8.80325758 59.5848485 15.4850758 57.9090909 15.4850758"></polygon>
                <path d="M79.989697,9.39719697 C79.82,7.40325758 78.675303,5.66386364 76.4904545,5.66386364 C74.5806061,5.66386364 73.1381818,7.25477273 72.9268182,9.39719697 L79.989697,9.39719697 Z M71.2715152,10.0335606 L71.2715152,9.99113636 C71.2715152,6.8305303 73.4995455,4.28507576 76.5328788,4.28507576 C79.7783333,4.28507576 81.645,6.87295455 81.645,10.0759848 C81.645,10.2881061 81.645,10.4153788 81.6230303,10.6062879 L72.9268182,10.6062879 C73.1593939,12.9820455 74.8351515,14.3184091 76.7866667,14.3184091 C78.2934848,14.3184091 79.3533333,13.7032576 80.2442424,12.7699242 L81.2631818,13.6820455 C80.1601515,14.9123485 78.8230303,15.7396212 76.745,15.7396212 C73.7321212,15.7396212 71.2715152,13.4275 71.2715152,10.0335606 L71.2715152,10.0335606 Z" id="Fill-16"></path>
                <path d="M90.6601515,11.455 L90.6601515,10.3943939 C89.8540909,10.1610606 88.7722727,9.92772727 87.4351515,9.92772727 C85.3775758,9.92772727 84.2328788,10.8186364 84.2328788,12.1974242 L84.2328788,12.2398485 C84.2328788,13.6186364 85.5048485,14.424697 86.989697,14.424697 C89.0048485,14.424697 90.6601515,13.1943939 90.6601515,11.455 M82.5783333,12.3034848 L82.5783333,12.2610606 C82.5783333,9.94893939 84.4874242,8.71863636 87.2662121,8.71863636 C88.6654545,8.71863636 89.6631818,8.90954545 90.6389394,9.18530303 L90.6389394,8.80348485 C90.6389394,6.83075758 89.4298485,5.81257576 87.3715152,5.81257576 C86.0775758,5.81257576 85.0593939,6.1519697 84.0419697,6.61863636 L83.5533333,5.28227273 C84.7631818,4.73075758 85.950303,4.37015152 87.5419697,4.37015152 C89.0904545,4.37015152 90.2775758,4.77318182 91.0843939,5.57924242 C91.8268182,6.32166667 92.2086364,7.38227273 92.2086364,8.78227273 L92.2086364,15.4845455 L90.6389394,15.4845455 L90.6389394,13.8307576 C89.875303,14.8277273 88.6018182,15.7186364 86.6715152,15.7186364 C84.6359091,15.7186364 82.5783333,14.5519697 82.5783333,12.3034848" id="Fill-18"></path>
                <polygon id="Fill-20" points="93.8618182 15.4840909 95.4951515 15.4840909 95.4951515 -2.28773229e-13 93.8618182 -2.28773229e-13"></polygon>
                <path d="M98.550303,12.5791667 L98.550303,5.96098485 L97.0230303,5.96098485 L97.0230303,4.51856061 L98.550303,4.51856061 L98.550303,1.2094697 L100.183636,1.2094697 L100.183636,4.51856061 L103.662424,4.51856061 L103.662424,5.96098485 L100.183636,5.96098485 L100.183636,12.3670455 C100.183636,13.7034091 100.926061,14.1912879 102.029091,14.1912879 C102.580606,14.1912879 103.047273,14.0852273 103.62,13.8094697 L103.62,15.2094697 C103.047273,15.5064394 102.432121,15.6753788 101.647273,15.6753788 C99.8866667,15.6753788 98.550303,14.8064394 98.550303,12.5791667" id="Fill-22"></path>
                <path d="M105.125833,0.000378787879 L106.759167,0.000378787879 L106.759167,6.42765152 C107.479621,5.23977273 108.625833,4.28522727 110.512955,4.28522727 C113.16447,4.28522727 114.712955,6.06704545 114.712955,8.67613636 L114.712955,15.4844697 L113.080379,15.4844697 L113.080379,9.07916667 C113.080379,7.04280303 111.977348,5.77007576 110.047045,5.77007576 C108.159167,5.77007576 106.759167,7.14886364 106.759167,9.20643939 L106.759167,15.4844697 L105.125833,15.4844697 L105.125833,0.000378787879 Z" id="Fill-23"></path>
            </g>
        </g>
    </g>
</svg>